<svg width="16" height="16" viewBox="0 0 16 16" fill="none" xmlns="http://www.w3.org/2000/svg"><g fill-rule="evenodd" clip-rule="evenodd" fill="currentColor"><path d="M8 4.467a3.533 3.533 0 1 0 0 7.066 3.533 3.533 0 0 0 0-7.066M5.667 8a2.333 2.333 0 1 1 4.666 0 2.333 2.333 0 0 1-4.666 0"></path><path d="M14.73 10.08c.336-.604.568-1.022.661-1.475a3 3 0 0 0 0-1.21c-.093-.453-.325-.87-.662-1.474l-1.554-2.792c-.354-.636-.598-1.075-.954-1.403a3 3 0 0 0-1.091-.641c-.46-.152-.963-.152-1.69-.151H6.56c-.727 0-1.23 0-1.69.15a3 3 0 0 0-1.09.642c-.357.328-.601.767-.955 1.403L1.271 5.92C.934 6.524.7 6.94.609 7.395a3 3 0 0 0 0 1.21c.093.453.325.87.662 1.474l1.554 2.792c.354.636.598 1.075.954 1.403.314.289.686.507 1.091.641.46.152.963.152 1.69.151h2.88c.728 0 1.23 0 1.69-.15a3 3 0 0 0 1.09-.642c.357-.328.601-.767.955-1.403zm-.514-2.443c.05.24.05.487 0 .726-.051.25-.182.497-.58 1.213l-1.462 2.626c-.42.754-.57 1.008-.766 1.189a1.8 1.8 0 0 1-.654.385c-.253.083-.548.09-1.411.09H6.657c-.863 0-1.157-.007-1.41-.09a1.8 1.8 0 0 1-.655-.385c-.196-.18-.346-.435-.766-1.189L2.364 9.576c-.398-.716-.529-.963-.58-1.213a1.8 1.8 0 0 1 0-.726c.051-.25.182-.497.58-1.213l1.462-2.626c.42-.754.57-1.008.766-1.189a1.8 1.8 0 0 1 .654-.385c.254-.083.548-.09 1.411-.09h2.686c.863 0 1.158.007 1.41.09a1.8 1.8 0 0 1 .655.385c.196.18.346.435.766 1.189l1.462 2.626c.398.716.529.963.58 1.213"></path></g></svg>